<?xml version="1.0" standalone="no"?>
<!DOCTYPE svg PUBLIC "-//W3C//DTD SVG 20010904//EN"
 "http://www.w3.org/TR/2001/REC-SVG-20010904/DTD/svg10.dtd">
<svg version="1.0" xmlns="http://www.w3.org/2000/svg"
 width="1000.000000pt" height="1000.000000pt" viewBox="0 0 1000.000000 1000.000000"
 preserveAspectRatio="xMidYMid meet">
<metadata>
Created by potrace 1.16, written by Peter Selinger 2001-2019
</metadata>
<g transform="translate(0.000000,1000.000000) scale(0.100000,-0.100000)"
fill="#000000" stroke="none">
<path d="M1540 6965 l0 -365 410 0 410 0 0 -1965 0 -1965 400 0 400 0 0 1965
0 1965 410 0 410 0 0 365 0 365 -1220 0 -1220 0 0 -365z"/>
<path d="M7540 6871 l0 -259 -36 8 c-21 5 -40 13 -44 20 -3 6 -14 82 -24 169
l-18 159 -30 6 c-39 8 -226 8 -265 0 l-29 -6 -19 -169 -19 -168 -55 -11 c-31
-6 -103 -25 -161 -43 l-106 -33 -103 138 -103 137 -71 -36 c-40 -19 -102 -55
-139 -79 l-67 -43 29 -68 c16 -37 46 -108 68 -157 l38 -89 -119 -118 -120
-119 -149 65 c-82 36 -153 65 -157 65 -18 0 -166 -250 -159 -269 1 -5 59 -51
128 -101 69 -51 129 -96 133 -100 5 -4 -5 -50 -22 -102 -16 -52 -35 -124 -42
-160 l-12 -65 -146 -17 c-80 -9 -158 -19 -173 -22 l-28 -6 0 -159 c0 -124 3
-159 13 -159 32 0 330 -40 335 -45 3 -3 -97 -5 -221 -5 l-227 0 0 -986 c0
-721 3 -997 12 -1025 14 -50 92 -124 144 -138 26 -7 672 -11 1979 -12 2163 -1
1991 -6 2067 68 74 72 69 -102 66 2084 l-3 1965 -28 42 c-15 23 -46 54 -69 69
l-42 28 -1003 3 -1003 2 0 -259z m1797 -85 l28 -24 3 -676 2 -676 -167 0 -168
1 -28 44 c-52 82 -151 126 -249 111 -161 -26 -254 -202 -184 -351 82 -176 324
-195 430 -33 l31 47 168 0 167 1 0 -236 c0 -211 -2 -235 -16 -230 -9 3 -88 6
-177 6 l-162 0 -16 33 c-38 79 -168 138 -257 119 -95 -22 -166 -85 -196 -175
-20 -60 -20 -82 1 -147 31 -95 143 -180 239 -180 72 0 183 67 218 131 l18 34
174 -3 174 -3 0 -648 c0 -669 -2 -701 -40 -721 -11 -6 -126 -10 -272 -10
l-253 0 3 177 c2 101 -2 206 -8 242 -23 132 -85 216 -199 270 -54 25 -63 26
-273 29 l-216 4 -28 39 c-51 75 -157 117 -245 98 -134 -29 -221 -151 -202
-284 13 -98 113 -196 212 -210 102 -14 219 48 258 136 l17 40 196 -3 c222 -3
245 -10 280 -78 18 -36 20 -59 20 -250 l0 -210 -1148 0 -1148 0 0 208 c1 190
3 210 22 247 40 77 52 80 370 83 l281 3 13 -30 c16 -41 72 -97 123 -123 57
-30 155 -30 213 0 53 27 117 100 132 150 28 94 -1 197 -73 261 -52 45 -98 63
-165 63 -77 1 -132 -25 -188 -88 l-47 -53 -300 -3 c-351 -4 -364 -7 -456 -98
-92 -91 -102 -128 -107 -397 l-4 -223 -173 0 c-155 0 -175 2 -196 19 l-24 19
-3 683 -2 682 61 -7 c34 -3 118 -6 185 -6 105 0 124 -2 124 -15 0 -9 22 -38
49 -65 157 -156 412 -58 425 165 1 25 2 25 93 25 l91 0 4 -117 c3 -101 7 -125
28 -168 33 -67 102 -135 175 -171 l60 -29 530 0 530 0 66 32 c79 39 140 102
177 181 l27 57 3 490 c3 466 2 492 -17 555 -34 112 -112 193 -225 235 -35 14
-77 19 -152 19 l-104 1 0 76 0 76 59 12 c100 20 174 90 201 191 24 90 -20 202
-103 257 l-48 32 -2 191 -2 190 667 0 667 0 28 -24z m-1942 -546 c121 -18 145
-27 145 -57 0 -21 -3 -24 -22 -19 -142 39 -323 44 -471 12 -280 -61 -539 -272
-663 -540 -61 -133 -78 -213 -78 -376 -1 -80 2 -164 7 -187 7 -41 6 -43 -17
-43 -13 0 -27 8 -31 18 -14 32 -18 275 -6 352 38 244 185 491 381 639 222 167
492 239 755 201z m75 -218 l65 -19 3 -486 2 -487 -534 0 -534 0 -12 68 c-16
86 -8 275 14 357 81 296 337 529 644 585 76 14 278 4 352 -18z"/>
<path d="M4934 6472 l-282 -2 -6 -45 c-4 -24 -11 -47 -17 -50 -5 -4 -9 -15 -9
-26 0 -10 -4 -19 -9 -19 -5 0 -11 -22 -15 -50 -4 -27 -11 -52 -16 -55 -6 -3
-10 -15 -10 -26 0 -10 -4 -19 -9 -19 -5 0 -11 -22 -15 -50 -4 -27 -11 -52 -16
-55 -6 -3 -10 -15 -10 -26 0 -10 -4 -19 -10 -19 -5 0 -10 -8 -10 -19 0 -23
-31 -124 -41 -131 -4 -3 -10 -24 -14 -47 -4 -24 -11 -45 -16 -49 -5 -3 -9 -16
-9 -30 0 -13 -3 -24 -8 -24 -7 0 -25 -58 -39 -122 -3 -16 -9 -28 -14 -28 -5 0
-9 -10 -9 -23 0 -13 -3 -27 -7 -31 -4 -3 -8 -12 -10 -19 -1 -7 -6 -25 -9 -42
-4 -16 -10 -32 -14 -35 -4 -3 -12 -27 -17 -55 l-10 -50 -7 40 c-4 22 -11 48
-17 57 -5 10 -9 27 -9 38 0 11 -4 20 -9 20 -5 0 -12 23 -16 50 -4 28 -11 50
-16 50 -5 0 -9 11 -9 25 0 14 -4 25 -9 25 -5 0 -12 23 -16 50 -4 28 -11 50
-16 50 -5 0 -9 11 -9 25 0 14 -4 25 -9 25 -5 0 -12 23 -16 50 -4 28 -11 50
-16 50 -5 0 -9 8 -9 19 0 10 -7 35 -15 54 -8 20 -15 48 -15 62 0 15 -4 24 -9
21 -5 -3 -11 7 -14 22 -13 66 -37 141 -57 182 -4 9 -11 35 -15 58 -4 23 -11
44 -16 48 -5 3 -9 16 -9 30 0 13 -4 24 -10 24 -5 0 -10 9 -10 19 0 53 11 51
-321 51 -288 0 -309 -1 -308 -17 1 -25 17 -70 19 -58 2 10 10 -13 32 -97 7
-27 16 -48 20 -48 5 0 8 -11 8 -25 0 -14 4 -25 9 -25 5 0 12 -20 15 -45 4 -25
11 -45 17 -45 5 0 9 -11 9 -25 0 -14 4 -25 9 -25 5 0 12 -20 15 -45 4 -24 11
-47 17 -50 5 -4 9 -17 9 -31 0 -13 4 -24 9 -24 6 0 13 -20 17 -45 3 -25 10
-42 15 -39 5 3 9 -4 9 -15 0 -10 9 -40 20 -65 10 -25 16 -46 13 -46 -4 0 -2
-5 5 -12 7 -7 12 -22 12 -34 0 -12 3 -24 8 -26 9 -4 42 -98 42 -120 0 -10 5
-18 10 -18 6 0 10 -11 10 -24 0 -14 4 -27 9 -30 5 -3 12 -21 15 -39 3 -19 16
-53 27 -77 11 -23 23 -58 26 -76 3 -19 9 -34 13 -34 4 0 10 -12 13 -27 14 -65
32 -123 39 -123 5 0 8 -9 8 -19 0 -11 4 -22 9 -26 6 -3 13 -26 17 -50 3 -25
10 -45 15 -45 5 0 9 -11 9 -25 0 -14 4 -25 9 -25 5 0 11 -17 14 -38 4 -20 15
-55 26 -77 11 -22 15 -41 10 -43 -5 -2 -9 -15 -9 -28 0 -14 -4 -23 -9 -20 -5
3 -12 -16 -16 -44 -4 -27 -11 -50 -16 -50 -5 0 -9 -11 -9 -25 0 -14 -4 -25 -9
-25 -4 0 -11 -15 -14 -34 -3 -18 -15 -53 -26 -77 -12 -24 -24 -61 -28 -81 -3
-21 -9 -38 -14 -38 -5 0 -9 -11 -9 -25 0 -14 -4 -25 -9 -25 -5 0 -12 -20 -15
-45 -4 -24 -11 -47 -17 -50 -5 -4 -9 -15 -9 -26 0 -10 -3 -19 -8 -19 -7 0 -25
-58 -39 -122 -3 -16 -9 -28 -14 -28 -5 0 -9 -9 -9 -20 0 -20 -29 -101 -39
-110 -7 -5 -29 -79 -38 -122 -3 -16 -9 -28 -14 -28 -5 0 -9 -7 -9 -16 0 -22
-33 -118 -42 -122 -5 -2 -8 -15 -8 -28 0 -13 -4 -24 -9 -24 -5 0 -12 -22 -16
-50 -4 -27 -11 -50 -16 -50 -5 0 -9 -12 -9 -26 0 -14 -4 -23 -9 -20 -5 3 -12
-14 -15 -39 -4 -25 -11 -45 -17 -45 -5 0 -9 -11 -9 -24 0 -14 -4 -27 -9 -31
-6 -3 -13 -26 -17 -50 -3 -25 -10 -45 -15 -45 -5 0 -9 -12 -9 -26 0 -14 -4
-23 -9 -20 -5 3 -12 -16 -16 -44 -4 -27 -11 -50 -16 -50 -5 0 -9 -12 -9 -26 0
-16 -4 -23 -11 -18 -7 4 -10 1 -7 -7 4 -11 56 -14 282 -17 271 -2 278 -2 283
18 3 11 9 20 14 20 5 0 9 11 9 25 0 14 4 25 9 25 5 0 12 23 16 50 4 27 11 50
16 50 5 0 9 11 9 24 0 14 4 27 9 31 6 3 13 26 17 50 3 25 10 45 15 45 5 0 9
11 9 25 0 14 4 25 9 25 5 0 12 22 16 50 4 28 11 50 16 50 5 0 9 11 9 25 0 14
4 25 9 25 5 0 12 23 16 50 4 28 11 50 16 50 5 0 9 11 9 24 0 14 4 27 9 31 6 3
13 26 17 50 3 25 10 45 15 45 5 0 9 11 9 24 0 14 4 27 9 30 5 3 12 26 15 51 4
24 11 47 17 50 5 4 9 17 9 31 0 13 3 24 8 24 7 0 25 58 39 123 3 15 9 27 14
27 5 0 9 12 9 26 0 22 2 25 15 14 8 -7 15 -23 15 -36 0 -13 4 -24 9 -24 5 0
12 -22 16 -50 4 -27 11 -50 16 -50 5 0 9 -11 9 -25 0 -14 4 -25 9 -25 5 0 11
-12 14 -27 10 -52 13 -62 20 -69 4 -4 7 -18 7 -31 0 -12 4 -23 9 -23 5 0 11
-15 15 -32 9 -48 11 -57 19 -64 4 -4 7 -20 7 -35 0 -15 3 -29 8 -31 11 -5 42
-100 42 -130 0 -16 5 -28 10 -28 6 0 10 -9 10 -19 0 -11 4 -22 9 -26 6 -3 13
-27 17 -53 4 -26 10 -49 13 -52 10 -7 41 -108 41 -131 0 -11 4 -19 9 -19 5 0
11 -12 14 -27 14 -65 32 -123 39 -123 5 0 8 -11 8 -24 0 -13 7 -27 16 -30 9
-3 146 -6 306 -6 l291 0 -6 51 c-4 28 -11 56 -16 63 -6 7 -13 31 -17 54 -4 23
-10 42 -15 42 -5 0 -9 11 -9 25 0 14 -4 25 -9 25 -5 0 -12 15 -16 33 -3 17
-10 41 -15 52 -23 56 -40 107 -40 125 0 11 -4 20 -10 20 -5 0 -10 9 -10 19 0
11 -4 22 -9 26 -6 3 -13 26 -17 50 -3 25 -10 45 -15 45 -5 0 -9 11 -9 25 0 14
-4 25 -9 25 -5 0 -11 18 -15 40 -3 23 -10 49 -15 58 -23 44 -41 92 -41 111 0
12 -4 21 -10 21 -5 0 -10 11 -10 25 0 14 -4 25 -9 25 -5 0 -12 23 -16 50 -4
28 -11 50 -16 50 -5 0 -9 9 -9 19 0 11 -4 22 -9 26 -6 3 -13 26 -17 50 -3 25
-10 45 -15 45 -5 0 -9 11 -9 25 0 14 -4 25 -9 25 -5 0 -11 17 -14 38 -4 20
-16 57 -28 81 -11 24 -23 59 -26 77 -3 19 -10 34 -14 34 -5 0 -9 11 -9 25 0
14 -4 25 -9 25 -5 0 -12 20 -15 45 -4 25 -11 45 -17 45 -5 0 -9 11 -9 24 0 14
-4 27 -9 30 -5 4 -12 24 -16 46 -4 22 -11 42 -16 46 -5 3 -9 16 -9 30 0 13 -4
24 -10 24 -5 0 -10 7 -10 15 0 8 5 15 10 15 6 0 10 11 10 25 0 14 5 25 10 25
6 0 10 10 10 23 0 12 7 35 15 51 8 15 15 37 15 47 0 11 4 19 9 19 5 0 12 20
15 45 4 24 11 47 17 50 5 4 9 15 9 26 0 10 4 19 9 19 5 0 12 20 15 45 4 25 11
45 17 45 5 0 9 11 9 25 0 14 4 25 9 25 5 0 12 23 16 50 4 28 11 50 16 50 5 0
9 12 9 26 0 14 4 23 10 19 6 -4 10 5 10 20 0 15 7 43 16 63 24 56 30 72 50
140 11 34 22 62 25 62 4 0 10 20 13 45 4 25 11 45 17 45 5 0 9 11 9 25 0 14 4
25 9 25 4 0 11 15 14 33 3 18 14 53 25 78 11 24 24 60 28 79 3 19 10 41 14 50
16 32 29 66 35 94 3 15 14 47 24 70 27 62 43 108 48 139 3 15 9 27 14 27 5 0
9 8 9 19 0 10 7 38 15 61 8 24 14 44 13 44 -2 1 -130 0 -284 -2z"/>
<path d="M310 4680 l0 -1790 255 0 255 0 0 1258 c0 705 4 1250 9 1242 5 -8 12
-43 16 -77 4 -35 11 -63 16 -63 5 0 9 -13 9 -29 0 -17 4 -32 9 -36 5 -3 13
-34 16 -70 4 -36 11 -62 16 -59 5 3 9 -11 9 -30 0 -19 4 -37 10 -41 5 -3 12
-32 16 -65 4 -33 11 -60 15 -60 5 0 9 -16 9 -35 0 -19 4 -35 9 -35 4 0 11 -27
15 -60 4 -33 11 -62 16 -65 6 -4 10 -22 10 -41 0 -19 4 -34 9 -34 5 0 13 -25
16 -55 4 -30 11 -58 16 -61 5 -3 9 -20 9 -38 0 -17 4 -36 8 -42 5 -5 16 -45
26 -89 10 -44 22 -89 26 -100 5 -11 11 -33 15 -50 15 -73 32 -141 37 -155 13
-33 38 -138 38 -158 0 -12 4 -30 9 -40 14 -28 30 -84 37 -132 4 -25 10 -49 14
-55 4 -5 10 -23 13 -40 21 -106 32 -151 37 -155 8 -5 13 -27 31 -132 7 -38 16
-68 21 -68 4 0 8 -13 8 -29 0 -17 4 -32 10 -36 5 -3 12 -32 16 -65 4 -33 11
-60 15 -60 5 0 9 -15 9 -33 0 -18 4 -37 9 -42 5 -6 11 -21 13 -35 l3 -25 298
-3 297 -2 0 1790 0 1790 -260 0 -260 0 0 -1016 c0 -944 -5 -1133 -25 -934 -4
38 -11 70 -16 70 -5 0 -9 13 -9 29 0 17 -4 32 -9 35 -5 3 -12 33 -16 66 -4 33
-11 60 -16 60 -5 0 -9 15 -9 34 0 19 -4 37 -10 41 -5 3 -12 32 -16 65 -4 33
-10 57 -14 55 -4 -3 -10 12 -14 33 -15 102 -31 172 -38 172 -4 0 -8 13 -8 29
0 17 -4 32 -9 35 -5 3 -12 33 -16 66 -4 33 -11 63 -16 66 -5 3 -9 18 -9 35 0
16 -4 29 -9 29 -5 0 -12 29 -16 65 -3 36 -11 67 -16 70 -5 4 -9 19 -9 35 0 16
-4 31 -9 34 -9 6 -21 64 -21 103 0 12 -5 25 -10 28 -6 3 -10 19 -10 35 0 16
-4 31 -9 34 -9 6 -25 82 -22 103 1 6 -3 14 -9 18 -5 3 -10 19 -10 36 0 16 -4
37 -9 47 -15 29 -41 127 -41 156 0 14 -4 34 -9 44 -13 25 -29 82 -36 127 -4
22 -12 52 -18 68 l-12 27 -352 0 -353 0 0 -1790z"/>
<path d="M2935 2496 c-39 -17 -70 -52 -90 -98 -12 -31 -15 -89 -15 -340 0
-273 2 -307 19 -343 36 -78 85 -105 190 -105 89 0 146 28 178 90 20 37 23 58
23 147 l0 103 -64 0 -63 0 -6 -86 c-5 -95 -21 -124 -67 -124 -15 0 -35 9 -46
21 -18 20 -19 40 -19 301 l0 280 24 19 c29 24 52 24 80 2 17 -14 23 -33 28
-90 l6 -73 63 0 64 0 0 88 c0 112 -23 164 -90 199 -50 27 -164 31 -215 9z"/>
<path d="M5075 2494 c-45 -23 -66 -45 -86 -89 -17 -36 -19 -70 -19 -345 0
-344 3 -361 75 -416 31 -23 50 -29 106 -32 94 -6 133 3 175 40 62 55 64 66 64
408 0 335 -2 350 -57 402 -15 15 -41 32 -56 37 -43 17 -167 14 -202 -5z m151
-135 c18 -20 19 -40 19 -299 0 -259 -1 -279 -19 -299 -24 -26 -57 -27 -87 -2
l-24 19 0 282 0 282 24 19 c30 25 63 24 87 -2z"/>
<path d="M6395 2494 c-45 -23 -66 -45 -86 -89 -17 -36 -19 -70 -19 -345 0
-344 3 -361 75 -416 31 -23 50 -29 106 -32 94 -6 133 3 175 40 62 55 64 66 64
408 0 335 -2 350 -57 402 -15 15 -41 32 -56 37 -43 17 -167 14 -202 -5z m151
-135 c18 -20 19 -40 19 -299 0 -259 -1 -279 -19 -299 -24 -26 -57 -27 -87 -2
l-24 19 0 282 0 282 24 19 c30 25 63 24 87 -2z"/>
<path d="M7095 2496 c-39 -17 -70 -52 -90 -98 -12 -31 -15 -89 -15 -340 0
-273 2 -307 19 -343 36 -78 85 -105 190 -105 89 0 146 28 178 90 22 41 23 54
23 232 l0 188 -100 0 -100 0 0 -65 0 -65 36 0 37 0 -5 -105 c-4 -83 -9 -109
-23 -125 -24 -26 -67 -26 -91 1 -18 20 -19 40 -19 301 l0 280 24 19 c29 24 53
24 80 2 17 -14 23 -34 28 -85 l6 -68 63 0 64 0 0 83 c0 152 -61 217 -204 217
-39 -1 -84 -7 -101 -14z"/>
<path d="M1490 2435 l0 -65 75 0 75 0 0 -375 0 -375 70 0 70 0 0 375 0 375 75
0 75 0 0 65 0 65 -220 0 -220 0 0 -65z"/>
<path d="M2190 2060 l0 -440 190 0 190 0 0 65 0 65 -120 0 -120 0 0 130 0 130
95 0 95 0 0 65 0 65 -95 0 -95 0 0 115 0 115 120 0 120 0 0 65 0 65 -190 0
-190 0 0 -440z"/>
<path d="M3520 2060 l0 -440 70 0 70 0 0 195 0 195 70 0 70 0 0 -195 0 -195
70 0 70 0 0 440 0 440 -70 0 -70 0 0 -180 0 -180 -70 0 -70 0 0 180 0 180 -70
0 -70 0 0 -440z"/>
<path d="M4250 2060 l0 -440 65 0 65 0 2 290 3 290 75 -290 75 -290 77 0 78 0
0 440 0 440 -65 0 -65 0 -2 -246 -3 -246 -54 213 c-30 118 -59 229 -63 247
l-9 32 -89 0 -90 0 0 -440z"/>
<path d="M5680 2060 l0 -440 185 0 185 0 0 65 0 65 -115 0 -115 0 0 375 0 375
-70 0 -70 0 0 -440z"/>
<path d="M7690 2060 l0 -440 70 0 70 0 0 440 0 440 -70 0 -70 0 0 -440z"/>
<path d="M8130 2060 l0 -440 190 0 190 0 0 65 0 65 -120 0 -120 0 0 130 0 130
95 0 95 0 0 65 0 65 -95 0 -95 0 0 115 0 115 120 0 120 0 0 65 0 65 -190 0
-190 0 0 -440z"/>
</g>
</svg>
